# xmcd
#
# Track frame offsets: 
#        150
#        15732
#        32367
#        48257
#        73530
#
# Disc length: 1185 seconds
#
# Revision: 2
# Processed by: cddbd v1.5.2PL0 Copyright (c) Steve Scherf et al.
# Submitted via: ExactAudioCopy v0.99pb5
#
DISCID=33049f05
DTITLE=Andreas Elsholz - Summertime (Maxi)
DYEAR=1994
DGENRE=Pop
TTITLE0=Summertime (Lass' es immer Sommer sein) (Radio Mix)
TTITLE1=Summertime (Lass' es immer Sommer sein) (Summerclub Mix)
TTITLE2=Summertime (Lass' es immer Sommer sein) (Video Version)
TTITLE3=Summertime (Lass' es immer Sommer sein) (Round The Way Mix)
TTITLE4=Spür' mich (Album Mix)
EXTD=YEAR: 2000 ID3G: 13\n
EXTT0=
EXTT1=
EXTT2=
EXTT3=
EXTT4=
PLAYORDER=
